{"title":"Ender's / Enders Game 2013 Multi v 2 CamRip XviD Mp3 Idiocracy","uid":9184521,"size":2092339200,"categoryP":"video","categoryS":"movies","magnet":"?xt=urn:btih:a7a45fb5ecb1ea5e781265a6dbd7a0d2bdc42414&amp;dn=Ender%27s+%2F+Enders+Game+2013+Multi+v+2+CamRip+XviD+Mp3+Idiocracy+&amp;tr=udp%3A%2F%2Ftracker.openbittorrent.com%3A80&amp;tr=udp%3A%2F%2Fopen.demonii.com%3A1337&amp;tr=udp%3A%2F%2Ftracker.coppersurfer.tk%3A6969&amp;tr=udp%3A%2F%2Fexodus.desync.com%3A6969","seeders":4,"leechers":0,"uploader":"Satafakap","files":2,"time":1384275356,"description":"General\n\nComplete name       : Enders.Game.2013.Multi.v.2.CamRip.XviD.Mp3-Idiocracy.avi\nFormat              : AVI\nFormat/Info         : Audio Video Interleave\nFile size           : 1.92 GiB\nDuration            : 1h 45mn\nOverall bit rate    : 2 620 Kbps\nWriting application : VirtualDubMod 1.5.10.3 | www.virtualdub-fr.org || (build 2550/release)\nWriting library     : VirtualDubMod build 2550/release\n\nSource:\t\t    : Igra.Endera.2013.D.TS.1400MB.PROPER_Santikov.Net.avi - Thanks\n\n\t\t      Enders.Game.2013.iTALiAN.MD.CAM.XviD-THK.avi for the missing 6 \n                      seconds - Thanks\n\n                      Enders.Game.2013.iTALiAN.READNFO.COMPLETE.MD.TELESYNC.XviD\n                      -REVOLUTiON.avi - for the Italian audio - Thanks\n\n                      Enders.Game.TS.LD.German.X264-AOE.mkv - for the German \n                      audio - Thanks\n\n                      Ender's Game 2013 New Soarce TS XviD MP3 MiLLENiUM2.avi - for\n                      the English audio, full version - Thanks\n\nSample              : Yes\n\nVideo\n\nID                                       : 0\nFormat                                   : MPEG-4 Visual\nFormat profile                           : Advanced Simple@L5\nFormat settings, BVOP                    : 4\nFormat settings, QPel                    : No\nFormat settings, GMC                     : No warppoints\nFormat settings, Matrix                  : Default (MPEG)\nCodec ID                                 : XVID\nCodec ID/Hint                            : XviD\nDuration                                 : 1h 45mn\nBit rate                                 : 2 079 Kbps\nWidth                                    : 720 pixels\nHeight                                   : 320 pixels\nDisplay aspect ratio                     : 2.25:1\nFrame rate                               : 29.970 fps\nColor space                              : YUV\nChroma subsampling                       : 4:2:0\nBit depth                                : 8 bits\nScan type                                : Progressive\nCompression mode                         : Lossy\nBits/(Pixel*Frame)                       : 0.301\nStream size                              : 1.53 GiB (79%)\nWriting library                          : XviD 1.2.1 (UTC 2008-12-04)\n\nAudio #1 English\n\nID                                       : 1\nFormat                                   : MPEG Audio\nFormat version                           : Version 1\nFormat profile                           : Layer 3\nCodec ID                                 : 55\nCodec ID/Hint                            : MP3\nDuration                                 : 1h 45mn\nBit rate mode                            : Constant\nBit rate                                 : 128 Kbps\nChannel(s)                               : 2 channels\nSampling rate                            : 48.0 KHz\nCompression mode                         : Lossy\nStream size                              : 96.3 MiB (5%)\nAlignment                                : Aligned on interleaves\nInterleave, duration                     : 33 ms (1.00 video frame)\nInterleave, preload duration             : 504 ms\nWriting library                          : LAME3.99r\nEncoding settings                        : -m s -V 4 -q 0 -lowpass 17 -b 128\n\nAudio #2 German\n\nID                                       : 2\nFormat                                   : MPEG Audio\nFormat version                           : Version 1\nFormat profile                           : Layer 3\nCodec ID                                 : 55\nCodec ID/Hint                            : MP3\nDuration                                 : 1h 45mn\nBit rate mode                            : Constant\nBit rate                                 : 128 Kbps\nChannel(s)                               : 2 channels\nSampling rate                            : 48.0 KHz\nCompression mode                         : Lossy\nStream size                              : 96.3 MiB (5%)\nAlignment                                : Aligned on interleaves\nInterleave, duration                     : 33 ms (1.00 video frame)\nInterleave, preload duration             : 504 ms\nWriting library                          : LAME3.99r\nEncoding settings                        : -m s -V 4 -q 0 -lowpass 17 -b 128\n\nAudio #3 Italian\n\nID                                       : 3\nFormat                                   : MPEG Audio\nFormat version                           : Version 1\nFormat profile                           : Layer 3\nCodec ID                                 : 55\nCodec ID/Hint                            : MP3\nDuration                                 : 1h 45mn\nBit rate mode                            : Constant\nBit rate                                 : 128 Kbps\nChannel(s)                               : 2 channels\nSampling rate                            : 48.0 KHz\nCompression mode                         : Lossy\nStream size                              : 96.3 MiB (5%)\nAlignment                                : Aligned on interleaves\nInterleave, duration                     : 33 ms (1.00 video frame)\nInterleave, preload duration             : 504 ms\nWriting library                          : LAME3.99r\nEncoding settings                        : -m s -V 4 -q 0 -lowpass 17 -b 128\n\nAudio #4 Russian\n\nID                                       : 4\nFormat                                   : MPEG Audio\nFormat version                           : Version 1\nFormat profile                           : Layer 3\nCodec ID                                 : 55\nCodec ID/Hint                            : MP3\nDuration                                 : 1h 45mn\nBit rate mode                            : Constant\nBit rate                                 : 128 Kbps\nChannel(s)                               : 2 channels\nSampling rate                            : 48.0 KHz\nCompression mode                         : Lossy\nStream size                              : 96.3 MiB (5%)\nAlignment                                : Aligned on interleaves\nInterleave, duration                     : 33 ms (1.00 video frame)\nInterleave, preload duration             : 504 ms\nWriting library                          : LAME3.99r\nEncoding settings                        : -m s -V 4 -q 0 -lowpass 17 -b 128","torrent":{"xt":"urn:btih:a7a45fb5ecb1ea5e781265a6dbd7a0d2bdc42414","amp;dn":"Ender%27s+%2F+Enders+Game+2013+Multi+v+2+CamRip+XviD+Mp3+Idiocracy+","amp;tr":["udp%3A%2F%2Ftracker.openbittorrent.com%3A80","udp%3A%2F%2Fopen.demonii.com%3A1337","udp%3A%2F%2Ftracker.coppersurfer.tk%3A6969","udp%3A%2F%2Fexodus.desync.com%3A6969"],"infoHash":"a7a45fb5ecb1ea5e781265a6dbd7a0d2bdc42414","infoHashBuffer":{"type":"Buffer","data":[167,164,95,181,236,177,234,94,120,18,101,166,219,215,160,210,189,196,36,20]},"announce":[],"urlList":[]}}